<?xml version="1.0" encoding="UTF-8" standalone="no"?>
<!DOCTYPE svg PUBLIC "-//W3C//DTD SVG 1.1//EN" "http://www.w3.org/Graphics/SVG/1.1/DTD/svg11.dtd">
<svg version="1.1" xmlns="http://www.w3.org/2000/svg" xmlns:xlink="http://www.w3.org/1999/xlink" preserveAspectRatio="xMidYMid meet" viewBox="0 0 640 640" width="640" height="640"><defs><path d="M338.01 200.74L346.87 201.65L355.63 202.91L364.27 204.51L372.79 206.45L381.19 208.73L389.45 211.32L397.57 214.23L405.54 217.45L413.35 220.97L421 224.78L428.48 228.88L435.79 233.26L442.9 237.91L449.83 242.82L456.56 247.99L463.08 253.42L469.39 259.08L475.48 264.99L481.34 271.12L486.97 277.47L492.35 284.04L497.49 290.81L502.37 297.78L506.98 304.95L511.33 312.3L515.4 319.83L519.19 327.54L522.68 335.4L525.87 343.42L528.76 351.6L531.34 359.91L533.59 368.36L535.52 376.94L537.11 385.63L538.37 394.45L539.27 403.36L539.82 412.38L540 421.49L540 440L100 440L100 421.49L100.18 412.37L100.73 403.34L101.63 394.41L102.89 385.59L104.48 376.89L106.41 368.31L108.66 359.85L111.24 351.53L114.13 343.36L117.32 335.33L120.81 327.46L124.6 319.76L128.67 312.23L133.02 304.88L137.63 297.71L142.51 290.74L147.65 283.97L153.03 277.4L158.66 271.05L164.52 264.92L170.61 259.02L176.92 253.36L183.44 247.94L190.17 242.77L197.1 237.86L204.21 233.22L211.52 228.84L219 224.75L226.65 220.94L234.46 217.42L242.43 214.21L250.55 211.3L258.81 208.71L267.21 206.44L275.73 204.51L284.37 202.9L293.13 201.64L301.99 200.74L310.95 200.18L320 200L329.05 200.19L338.01 200.74ZM303.56 220.71L295.55 221.54L287.63 222.69L279.82 224.14L272.12 225.89L264.53 227.95L257.06 230.29L249.71 232.91L242.5 235.81L235.43 238.98L228.51 242.42L221.74 246.11L215.13 250.06L208.68 254.25L202.41 258.67L196.31 263.33L190.4 268.22L184.68 273.32L179.16 278.64L173.84 284.16L168.73 289.89L163.84 295.8L159.17 301.91L154.73 308.19L150.53 314.65L146.57 321.28L142.86 328.07L139.4 335.01L136.2 342.11L133.28 349.34L130.62 356.71L128.25 364.21L126.17 371.84L124.38 379.58L122.88 387.43L121.7 395.38L120.83 403.43L120.27 411.58L120.05 419.8L519.79 419.8L519.56 411.58L519.01 403.43L518.13 395.38L516.95 387.42L515.46 379.57L513.67 371.83L511.58 364.2L509.21 356.7L506.55 349.32L503.63 342.08L500.43 334.99L496.97 328.04L493.26 321.24L489.3 314.61L485.09 308.15L480.65 301.86L475.98 295.75L471.09 289.83L465.97 284.1L460.65 278.58L455.13 273.26L449.4 268.15L443.49 263.26L437.39 258.6L431.11 254.17L424.66 249.98L418.04 246.04L411.26 242.34L404.34 238.91L397.26 235.74L390.04 232.84L382.69 230.22L375.21 227.89L367.61 225.84L359.9 224.09L352.08 222.65L344.15 221.51L336.13 220.69L328.02 220.19L319.83 220.03L311.65 220.21L303.56 220.71Z" id="d5ALrnerz"></path><path d="M308.83 431.33C313.47 434.01 319.69 432.55 322.05 427.71C326 419.46 345.7 378.2 381.18 303.95C335.61 372.39 310.3 410.41 305.24 418.01C302.29 422.52 304.19 428.66 308.83 431.33C308.83 431.33 308.83 431.33 308.83 431.33C308.83 431.33 308.83 431.33 308.83 431.33Z" id="anjrfWCq"></path><path d="M244.36 283.04L229.48 289.78L203.41 243.77L217.9 237.03L244.36 283.04Z" id="d3UB12rZk2"></path><path d="M324.06 261.11L310.23 261.27L310.55 212.41L324.09 212.1L324.06 261.11Z" id="b9i686YYt"></path><path d="M405.52 288.28L392.77 278.02L421.53 233.66L434.09 243.57L405.52 288.28Z" id="e4Q3O4f0NM"></path><path d="M451.31 334.64L442.47 320.82L483.75 288L492.53 301.43L451.31 334.64Z" id="a2NVZnBaC"></path><path d="M191.01 333.9L181.53 347.28L136.01 320.74L145.16 307.57L191.01 333.9Z" id="aCu85x6qf"></path><path d="M161.45 386.08L157.24 401.96L105.37 393.25L109.33 377.67L161.45 386.08Z" id="eI2P6kVhI"></path><path d="M474.27 399.51L471.84 383.26L522.85 370.39L525.38 386.26L474.27 399.51Z" id="obyvBmGgD"></path></defs><g><g><path></path><g><g><filter id="shadow3481830" x="89" y="189" width="465" height="263" filterUnits="userSpaceOnUse" primitiveUnits="userSpaceOnUse"><feFlood></feFlood><feComposite in2="SourceAlpha" operator="in"></feComposite><feGaussianBlur stdDeviation="1"></feGaussianBlur><feOffset dx="3" dy="1" result="afterOffset"></feOffset><feFlood flood-color="#000000" flood-opacity="0.5"></feFlood><feComposite in2="afterOffset" operator="in"></feComposite><feMorphology operator="dilate" radius="1"></feMorphology><feComposite in2="SourceAlpha" operator="out"></feComposite></filter><path d="M338.01 200.74L346.87 201.65L355.63 202.91L364.27 204.51L372.79 206.45L381.19 208.73L389.45 211.32L397.57 214.23L405.54 217.45L413.35 220.97L421 224.78L428.48 228.88L435.79 233.26L442.9 237.91L449.83 242.82L456.56 247.99L463.08 253.42L469.39 259.08L475.48 264.99L481.34 271.12L486.97 277.47L492.35 284.04L497.49 290.81L502.37 297.78L506.98 304.95L511.33 312.3L515.4 319.83L519.19 327.54L522.68 335.4L525.87 343.42L528.76 351.6L531.34 359.91L533.59 368.36L535.52 376.94L537.11 385.63L538.37 394.45L539.27 403.36L539.82 412.38L540 421.49L540 440L100 440L100 421.49L100.18 412.37L100.73 403.34L101.63 394.41L102.89 385.59L104.48 376.89L106.41 368.31L108.66 359.85L111.24 351.53L114.13 343.36L117.32 335.33L120.81 327.46L124.6 319.76L128.67 312.23L133.02 304.88L137.63 297.71L142.51 290.74L147.65 283.97L153.03 277.4L158.66 271.05L164.52 264.92L170.61 259.02L176.92 253.36L183.44 247.94L190.17 242.77L197.1 237.86L204.21 233.22L211.52 228.84L219 224.75L226.65 220.94L234.46 217.42L242.43 214.21L250.55 211.3L258.81 208.71L267.21 206.44L275.73 204.51L284.37 202.9L293.13 201.64L301.99 200.74L310.95 200.18L320 200L329.05 200.19L338.01 200.74ZM303.56 220.71L295.55 221.54L287.63 222.69L279.82 224.14L272.12 225.89L264.53 227.95L257.06 230.29L249.71 232.91L242.5 235.81L235.43 238.98L228.51 242.42L221.74 246.11L215.13 250.06L208.68 254.25L202.41 258.67L196.31 263.33L190.4 268.22L184.68 273.32L179.16 278.64L173.84 284.16L168.73 289.89L163.84 295.8L159.17 301.91L154.73 308.19L150.53 314.65L146.57 321.28L142.86 328.07L139.4 335.01L136.2 342.11L133.28 349.34L130.62 356.71L128.25 364.21L126.17 371.84L124.38 379.58L122.88 387.43L121.7 395.38L120.83 403.43L120.27 411.58L120.05 419.8L519.79 419.8L519.56 411.58L519.01 403.43L518.13 395.38L516.95 387.42L515.46 379.57L513.67 371.83L511.58 364.2L509.21 356.7L506.55 349.32L503.63 342.08L500.43 334.99L496.97 328.04L493.26 321.24L489.3 314.61L485.09 308.15L480.65 301.86L475.98 295.75L471.09 289.83L465.97 284.1L460.65 278.58L455.13 273.26L449.4 268.15L443.49 263.26L437.39 258.6L431.11 254.17L424.66 249.98L418.04 246.04L411.26 242.34L404.34 238.91L397.26 235.74L390.04 232.84L382.69 230.22L375.21 227.89L367.61 225.84L359.9 224.09L352.08 222.65L344.15 221.51L336.13 220.69L328.02 220.19L319.83 220.03L311.65 220.21L303.56 220.71Z" id="a1Yj2NRdcu" fill="white" fill-opacity="1" filter="url(#shadow3481830)"></path></g><use xlink:href="#d5ALrnerz" opacity="1" fill="#696d6f" fill-opacity="1"></use><g><use xlink:href="#d5ALrnerz" opacity="1" fill-opacity="0" stroke="#000000" stroke-width="1" stroke-opacity="0"></use></g><g><filter id="shadow9444013" x="91" y="191" width="459" height="259" filterUnits="userSpaceOnUse" primitiveUnits="userSpaceOnUse"><feFlood></feFlood><feComposite in2="SourceAlpha" operator="out"></feComposite><feGaussianBlur stdDeviation="1"></feGaussianBlur><feOffset dx="1" dy="1" result="afterOffset"></feOffset><feFlood flood-color="#000000" flood-opacity="0.5"></feFlood><feComposite in2="afterOffset" operator="in"></feComposite><feMorphology operator="dilate" radius="1"></feMorphology><feComposite in2="SourceAlpha" operator="in"></feComposite></filter><path d="M338.01 200.74L346.87 201.65L355.63 202.91L364.27 204.51L372.79 206.45L381.19 208.73L389.45 211.32L397.57 214.23L405.54 217.45L413.35 220.97L421 224.78L428.48 228.88L435.79 233.26L442.9 237.91L449.83 242.82L456.56 247.99L463.08 253.42L469.39 259.08L475.48 264.99L481.34 271.12L486.97 277.47L492.35 284.04L497.49 290.81L502.37 297.78L506.98 304.95L511.33 312.3L515.4 319.83L519.19 327.54L522.68 335.4L525.87 343.42L528.76 351.6L531.34 359.91L533.59 368.36L535.52 376.94L537.11 385.63L538.37 394.45L539.27 403.36L539.82 412.38L540 421.49L540 440L100 440L100 421.49L100.18 412.37L100.73 403.34L101.63 394.41L102.89 385.59L104.48 376.89L106.41 368.31L108.66 359.85L111.24 351.53L114.13 343.36L117.32 335.33L120.81 327.46L124.6 319.76L128.67 312.23L133.02 304.88L137.63 297.71L142.51 290.74L147.65 283.97L153.03 277.4L158.66 271.05L164.52 264.92L170.61 259.02L176.92 253.36L183.44 247.94L190.17 242.77L197.1 237.86L204.21 233.22L211.52 228.84L219 224.75L226.65 220.94L234.46 217.42L242.43 214.21L250.55 211.3L258.81 208.71L267.21 206.44L275.73 204.51L284.37 202.9L293.13 201.64L301.99 200.74L310.95 200.18L320 200L329.05 200.19L338.01 200.74ZM303.56 220.71L295.55 221.54L287.63 222.69L279.82 224.14L272.12 225.89L264.53 227.95L257.06 230.29L249.71 232.91L242.5 235.81L235.43 238.98L228.51 242.42L221.74 246.11L215.13 250.06L208.68 254.25L202.41 258.67L196.31 263.33L190.4 268.22L184.68 273.32L179.16 278.64L173.84 284.16L168.73 289.89L163.84 295.8L159.17 301.91L154.73 308.19L150.53 314.65L146.57 321.28L142.86 328.07L139.4 335.01L136.2 342.11L133.28 349.34L130.62 356.71L128.25 364.21L126.17 371.84L124.38 379.58L122.88 387.43L121.7 395.38L120.83 403.43L120.27 411.58L120.05 419.8L519.79 419.8L519.56 411.58L519.01 403.43L518.13 395.38L516.95 387.42L515.46 379.57L513.67 371.83L511.58 364.2L509.21 356.7L506.55 349.32L503.63 342.08L500.43 334.99L496.97 328.04L493.26 321.24L489.3 314.61L485.09 308.15L480.65 301.86L475.98 295.75L471.09 289.83L465.97 284.1L460.65 278.58L455.13 273.26L449.4 268.15L443.49 263.26L437.39 258.6L431.11 254.17L424.66 249.98L418.04 246.04L411.26 242.34L404.34 238.91L397.26 235.74L390.04 232.84L382.69 230.22L375.21 227.89L367.61 225.84L359.9 224.09L352.08 222.65L344.15 221.51L336.13 220.69L328.02 220.19L319.83 220.03L311.65 220.21L303.56 220.71Z" id="jqBupIjn0" fill="white" fill-opacity="1" filter="url(#shadow9444013)"></path></g></g><g><g><filter id="shadow13153464" x="292.83" y="292.95" width="102.35" height="151.7" filterUnits="userSpaceOnUse" primitiveUnits="userSpaceOnUse"><feFlood></feFlood><feComposite in2="SourceAlpha" operator="in"></feComposite><feGaussianBlur stdDeviation="1"></feGaussianBlur><feOffset dx="3" dy="1" result="afterOffset"></feOffset><feFlood flood-color="#000000" flood-opacity="0.5"></feFlood><feComposite in2="afterOffset" operator="in"></feComposite><feMorphology operator="dilate" radius="1"></feMorphology><feComposite in2="SourceAlpha" operator="out"></feComposite></filter><path d="M308.83 431.33C313.47 434.01 319.69 432.55 322.05 427.71C326 419.46 345.7 378.2 381.18 303.95C335.61 372.39 310.3 410.41 305.24 418.01C302.29 422.52 304.19 428.66 308.83 431.33C308.83 431.33 308.83 431.33 308.83 431.33C308.83 431.33 308.83 431.33 308.83 431.33Z" id="a1X4waGu7D" fill="white" fill-opacity="1" filter="url(#shadow13153464)"></path></g><use xlink:href="#anjrfWCq" opacity="1" fill="#696d6f" fill-opacity="1"></use><g><use xlink:href="#anjrfWCq" opacity="1" fill-opacity="0" stroke="#000000" stroke-width="1" stroke-opacity="0"></use></g><g><filter id="shadow14320699" x="294.83" y="294.95" width="96.35" height="147.7" filterUnits="userSpaceOnUse" primitiveUnits="userSpaceOnUse"><feFlood></feFlood><feComposite in2="SourceAlpha" operator="out"></feComposite><feGaussianBlur stdDeviation="1"></feGaussianBlur><feOffset dx="1" dy="1" result="afterOffset"></feOffset><feFlood flood-color="#000000" flood-opacity="0.5"></feFlood><feComposite in2="afterOffset" operator="in"></feComposite><feMorphology operator="dilate" radius="1"></feMorphology><feComposite in2="SourceAlpha" operator="in"></feComposite></filter><path d="M308.83 431.33C313.47 434.01 319.69 432.55 322.05 427.71C326 419.46 345.7 378.2 381.18 303.95C335.61 372.39 310.3 410.41 305.24 418.01C302.29 422.52 304.19 428.66 308.83 431.33C308.83 431.33 308.83 431.33 308.83 431.33C308.83 431.33 308.83 431.33 308.83 431.33Z" id="eKauW1ktW" fill="white" fill-opacity="1" filter="url(#shadow14320699)"></path></g></g><g><g><filter id="shadow11937071" x="192.41" y="226.03" width="65.95" height="75.76" filterUnits="userSpaceOnUse" primitiveUnits="userSpaceOnUse"><feFlood></feFlood><feComposite in2="SourceAlpha" operator="in"></feComposite><feGaussianBlur stdDeviation="1"></feGaussianBlur><feOffset dx="3" dy="1" result="afterOffset"></feOffset><feFlood flood-color="#000000" flood-opacity="0.5"></feFlood><feComposite in2="afterOffset" operator="in"></feComposite><feMorphology operator="dilate" radius="1"></feMorphology><feComposite in2="SourceAlpha" operator="out"></feComposite></filter><path d="M244.36 283.04L229.48 289.78L203.41 243.77L217.9 237.03L244.36 283.04Z" id="a4A2UQSHr" fill="white" fill-opacity="1" filter="url(#shadow11937071)"></path></g><use xlink:href="#d3UB12rZk2" opacity="1" fill="#696d6f" fill-opacity="1"></use><g><use xlink:href="#d3UB12rZk2" opacity="1" fill-opacity="0" stroke="#000000" stroke-width="1" stroke-opacity="0"></use></g><g><filter id="shadow5413753" x="194.41" y="228.03" width="59.95" height="71.76" filterUnits="userSpaceOnUse" primitiveUnits="userSpaceOnUse"><feFlood></feFlood><feComposite in2="SourceAlpha" operator="out"></feComposite><feGaussianBlur stdDeviation="1"></feGaussianBlur><feOffset dx="1" dy="1" result="afterOffset"></feOffset><feFlood flood-color="#000000" flood-opacity="0.5"></feFlood><feComposite in2="afterOffset" operator="in"></feComposite><feMorphology operator="dilate" radius="1"></feMorphology><feComposite in2="SourceAlpha" operator="in"></feComposite></filter><path d="M244.36 283.04L229.48 289.78L203.41 243.77L217.9 237.03L244.36 283.04Z" id="aQKyB7UNW" fill="white" fill-opacity="1" filter="url(#shadow5413753)"></path></g></g><g><g><filter id="shadow7896994" x="299.23" y="201.1" width="38.85" height="72.17" filterUnits="userSpaceOnUse" primitiveUnits="userSpaceOnUse"><feFlood></feFlood><feComposite in2="SourceAlpha" operator="in"></feComposite><feGaussianBlur stdDeviation="1"></feGaussianBlur><feOffset dx="3" dy="1" result="afterOffset"></feOffset><feFlood flood-color="#000000" flood-opacity="0.5"></feFlood><feComposite in2="afterOffset" operator="in"></feComposite><feMorphology operator="dilate" radius="1"></feMorphology><feComposite in2="SourceAlpha" operator="out"></feComposite></filter><path d="M324.06 261.11L310.23 261.27L310.55 212.41L324.09 212.1L324.06 261.11Z" id="e96RsiN55R" fill="white" fill-opacity="1" filter="url(#shadow7896994)"></path></g><use xlink:href="#b9i686YYt" opacity="1" fill="#696d6f" fill-opacity="1"></use><g><use xlink:href="#b9i686YYt" opacity="1" fill-opacity="0" stroke="#000000" stroke-width="1" stroke-opacity="0"></use></g><g><filter id="shadow9776376" x="301.23" y="203.1" width="32.85" height="68.17" filterUnits="userSpaceOnUse" primitiveUnits="userSpaceOnUse"><feFlood></feFlood><feComposite in2="SourceAlpha" operator="out"></feComposite><feGaussianBlur stdDeviation="1"></feGaussianBlur><feOffset dx="1" dy="1" result="afterOffset"></feOffset><feFlood flood-color="#000000" flood-opacity="0.5"></feFlood><feComposite in2="afterOffset" operator="in"></feComposite><feMorphology operator="dilate" radius="1"></feMorphology><feComposite in2="SourceAlpha" operator="in"></feComposite></filter><path d="M324.06 261.11L310.23 261.27L310.55 212.41L324.09 212.1L324.06 261.11Z" id="a23KfarTFE" fill="white" fill-opacity="1" filter="url(#shadow9776376)"></path></g></g><g><g><filter id="shadow11512541" x="381.77" y="222.66" width="66.32" height="77.62" filterUnits="userSpaceOnUse" primitiveUnits="userSpaceOnUse"><feFlood></feFlood><feComposite in2="SourceAlpha" operator="in"></feComposite><feGaussianBlur stdDeviation="1"></feGaussianBlur><feOffset dx="3" dy="1" result="afterOffset"></feOffset><feFlood flood-color="#000000" flood-opacity="0.5"></feFlood><feComposite in2="afterOffset" operator="in"></feComposite><feMorphology operator="dilate" radius="1"></feMorphology><feComposite in2="SourceAlpha" operator="out"></feComposite></filter><path d="M405.52 288.28L392.77 278.02L421.53 233.66L434.09 243.57L405.52 288.28Z" id="a3Aly11QFG" fill="white" fill-opacity="1" filter="url(#shadow11512541)"></path></g><use xlink:href="#e4Q3O4f0NM" opacity="1" fill="#696d6f" fill-opacity="1"></use><g><use xlink:href="#e4Q3O4f0NM" opacity="1" fill-opacity="0" stroke="#000000" stroke-width="1" stroke-opacity="0"></use></g><g><filter id="shadow13305311" x="383.77" y="224.66" width="60.32" height="73.62" filterUnits="userSpaceOnUse" primitiveUnits="userSpaceOnUse"><feFlood></feFlood><feComposite in2="SourceAlpha" operator="out"></feComposite><feGaussianBlur stdDeviation="1"></feGaussianBlur><feOffset dx="1" dy="1" result="afterOffset"></feOffset><feFlood flood-color="#000000" flood-opacity="0.5"></feFlood><feComposite in2="afterOffset" operator="in"></feComposite><feMorphology operator="dilate" radius="1"></feMorphology><feComposite in2="SourceAlpha" operator="in"></feComposite></filter><path d="M405.52 288.28L392.77 278.02L421.53 233.66L434.09 243.57L405.52 288.28Z" id="g8BPggCetE" fill="white" fill-opacity="1" filter="url(#shadow13305311)"></path></g></g><g><g><filter id="shadow2636075" x="431.47" y="277" width="75.06" height="69.64" filterUnits="userSpaceOnUse" primitiveUnits="userSpaceOnUse"><feFlood></feFlood><feComposite in2="SourceAlpha" operator="in"></feComposite><feGaussianBlur stdDeviation="1"></feGaussianBlur><feOffset dx="3" dy="1" result="afterOffset"></feOffset><feFlood flood-color="#000000" flood-opacity="0.5"></feFlood><feComposite in2="afterOffset" operator="in"></feComposite><feMorphology operator="dilate" radius="1"></feMorphology><feComposite in2="SourceAlpha" operator="out"></feComposite></filter><path d="M451.31 334.64L442.47 320.82L483.75 288L492.53 301.43L451.31 334.64Z" id="c30Rar9eQ7" fill="white" fill-opacity="1" filter="url(#shadow2636075)"></path></g><use xlink:href="#a2NVZnBaC" opacity="1" fill="#696d6f" fill-opacity="1"></use><g><use xlink:href="#a2NVZnBaC" opacity="1" fill-opacity="0" stroke="#000000" stroke-width="1" stroke-opacity="0"></use></g><g><filter id="shadow56964" x="433.47" y="279" width="69.06" height="65.64" filterUnits="userSpaceOnUse" primitiveUnits="userSpaceOnUse"><feFlood></feFlood><feComposite in2="SourceAlpha" operator="out"></feComposite><feGaussianBlur stdDeviation="1"></feGaussianBlur><feOffset dx="1" dy="1" result="afterOffset"></feOffset><feFlood flood-color="#000000" flood-opacity="0.5"></feFlood><feComposite in2="afterOffset" operator="in"></feComposite><feMorphology operator="dilate" radius="1"></feMorphology><feComposite in2="SourceAlpha" operator="in"></feComposite></filter><path d="M451.31 334.64L442.47 320.82L483.75 288L492.53 301.43L451.31 334.64Z" id="a168eIeBWH" fill="white" fill-opacity="1" filter="url(#shadow56964)"></path></g></g><g><g><filter id="shadow5708129" x="125.01" y="296.57" width="80" height="62.71" filterUnits="userSpaceOnUse" primitiveUnits="userSpaceOnUse"><feFlood></feFlood><feComposite in2="SourceAlpha" operator="in"></feComposite><feGaussianBlur stdDeviation="1"></feGaussianBlur><feOffset dx="3" dy="1" result="afterOffset"></feOffset><feFlood flood-color="#000000" flood-opacity="0.5"></feFlood><feComposite in2="afterOffset" operator="in"></feComposite><feMorphology operator="dilate" radius="1"></feMorphology><feComposite in2="SourceAlpha" operator="out"></feComposite></filter><path d="M191.01 333.9L181.53 347.28L136.01 320.74L145.16 307.57L191.01 333.9Z" id="a1DkJ7lmYb" fill="white" fill-opacity="1" filter="url(#shadow5708129)"></path></g><use xlink:href="#aCu85x6qf" opacity="1" fill="#696d6f" fill-opacity="1"></use><g><use xlink:href="#aCu85x6qf" opacity="1" fill-opacity="0" stroke="#000000" stroke-width="1" stroke-opacity="0"></use></g><g><filter id="shadow3987499" x="127.01" y="298.57" width="74" height="58.71" filterUnits="userSpaceOnUse" primitiveUnits="userSpaceOnUse"><feFlood></feFlood><feComposite in2="SourceAlpha" operator="out"></feComposite><feGaussianBlur stdDeviation="1"></feGaussianBlur><feOffset dx="1" dy="1" result="afterOffset"></feOffset><feFlood flood-color="#000000" flood-opacity="0.5"></feFlood><feComposite in2="afterOffset" operator="in"></feComposite><feMorphology operator="dilate" radius="1"></feMorphology><feComposite in2="SourceAlpha" operator="in"></feComposite></filter><path d="M191.01 333.9L181.53 347.28L136.01 320.74L145.16 307.57L191.01 333.9Z" id="d1Txukes2r" fill="white" fill-opacity="1" filter="url(#shadow3987499)"></path></g></g><g><g><filter id="shadow3025045" x="94.37" y="366.67" width="81.08" height="47.29" filterUnits="userSpaceOnUse" primitiveUnits="userSpaceOnUse"><feFlood></feFlood><feComposite in2="SourceAlpha" operator="in"></feComposite><feGaussianBlur stdDeviation="1"></feGaussianBlur><feOffset dx="3" dy="1" result="afterOffset"></feOffset><feFlood flood-color="#000000" flood-opacity="0.5"></feFlood><feComposite in2="afterOffset" operator="in"></feComposite><feMorphology operator="dilate" radius="1"></feMorphology><feComposite in2="SourceAlpha" operator="out"></feComposite></filter><path d="M161.45 386.08L157.24 401.96L105.37 393.25L109.33 377.67L161.45 386.08Z" id="aao9suBmWc" fill="white" fill-opacity="1" filter="url(#shadow3025045)"></path></g><use xlink:href="#eI2P6kVhI" opacity="1" fill="#696d6f" fill-opacity="1"></use><g><use xlink:href="#eI2P6kVhI" opacity="1" fill-opacity="0" stroke="#000000" stroke-width="1" stroke-opacity="0"></use></g><g><filter id="shadow3974661" x="96.37" y="368.67" width="75.08" height="43.29" filterUnits="userSpaceOnUse" primitiveUnits="userSpaceOnUse"><feFlood></feFlood><feComposite in2="SourceAlpha" operator="out"></feComposite><feGaussianBlur stdDeviation="1"></feGaussianBlur><feOffset dx="1" dy="1" result="afterOffset"></feOffset><feFlood flood-color="#000000" flood-opacity="0.5"></feFlood><feComposite in2="afterOffset" operator="in"></feComposite><feMorphology operator="dilate" radius="1"></feMorphology><feComposite in2="SourceAlpha" operator="in"></feComposite></filter><path d="M161.45 386.08L157.24 401.96L105.37 393.25L109.33 377.67L161.45 386.08Z" id="a1XOBllhuu" fill="white" fill-opacity="1" filter="url(#shadow3974661)"></path></g></g><g><g><filter id="shadow9137268" x="460.84" y="359.39" width="78.55" height="52.13" filterUnits="userSpaceOnUse" primitiveUnits="userSpaceOnUse"><feFlood></feFlood><feComposite in2="SourceAlpha" operator="in"></feComposite><feGaussianBlur stdDeviation="1"></feGaussianBlur><feOffset dx="3" dy="1" result="afterOffset"></feOffset><feFlood flood-color="#000000" flood-opacity="0.5"></feFlood><feComposite in2="afterOffset" operator="in"></feComposite><feMorphology operator="dilate" radius="1"></feMorphology><feComposite in2="SourceAlpha" operator="out"></feComposite></filter><path d="M474.27 399.51L471.84 383.26L522.85 370.39L525.38 386.26L474.27 399.51Z" id="co8I6Kwbk" fill="white" fill-opacity="1" filter="url(#shadow9137268)"></path></g><use xlink:href="#obyvBmGgD" opacity="1" fill="#696d6f" fill-opacity="1"></use><g><use xlink:href="#obyvBmGgD" opacity="1" fill-opacity="0" stroke="#000000" stroke-width="1" stroke-opacity="0"></use></g><g><filter id="shadow7686646" x="462.84" y="361.39" width="72.55" height="48.13" filterUnits="userSpaceOnUse" primitiveUnits="userSpaceOnUse"><feFlood></feFlood><feComposite in2="SourceAlpha" operator="out"></feComposite><feGaussianBlur stdDeviation="1"></feGaussianBlur><feOffset dx="1" dy="1" result="afterOffset"></feOffset><feFlood flood-color="#000000" flood-opacity="0.5"></feFlood><feComposite in2="afterOffset" operator="in"></feComposite><feMorphology operator="dilate" radius="1"></feMorphology><feComposite in2="SourceAlpha" operator="in"></feComposite></filter><path d="M474.27 399.51L471.84 383.26L522.85 370.39L525.38 386.26L474.27 399.51Z" id="b22lspRnF" fill="white" fill-opacity="1" filter="url(#shadow7686646)"></path></g></g></g></g></svg>