<?xml version="1.0" encoding="UTF-8" standalone="no"?>
<!DOCTYPE svg PUBLIC "-//W3C//DTD SVG 1.1//EN" "http://www.w3.org/Graphics/SVG/1.1/DTD/svg11.dtd">
<svg version="1.1" xmlns="http://www.w3.org/2000/svg" xmlns:xlink="http://www.w3.org/1999/xlink" preserveAspectRatio="xMidYMid meet" viewBox="0 0 640 640" width="640" height="640"><defs><path d="M478.89 198.53L444.78 198.53L444.78 249.7L495.95 249.7L495.95 219.85L504.48 219.85L504.48 258.23L436.25 258.23L436.25 190L478.89 190L478.89 198.53ZM477.22 229.27L477.22 229.27L467.34 239.16L449.03 220.85L458.92 210.97L467.34 219.39L490.33 196.4L500.21 206.28L477.22 229.27Z" id="bucv8X521"></path><path d="M478.89 296.07L444.78 296.07L444.78 347.24L495.95 347.24L495.95 317.39L504.48 317.39L504.48 355.76L436.25 355.76L436.25 287.54L478.89 287.54L478.89 296.07ZM477.22 326.81L477.22 326.81L467.34 336.7L449.03 318.39L458.92 308.5L467.34 316.93L490.33 293.93L500.21 303.82L477.22 326.81Z" id="dPWm00YIz"></path><path d="M385.08 193.73C394.5 193.73 402.14 201.36 402.14 210.78C402.14 217.61 402.14 221.02 402.14 227.84C402.14 237.26 394.5 244.9 385.08 244.9C335.17 244.9 202.49 244.9 152.58 244.9C143.16 244.9 135.52 237.26 135.52 227.84C135.52 221.02 135.52 217.61 135.52 210.78C135.52 201.36 143.16 193.73 152.58 193.73C202.49 193.73 335.17 193.73 385.08 193.73Z" id="b3bmCC28Y9"></path><path d="M385.08 296.07C394.5 296.07 402.14 303.7 402.14 313.12C402.14 319.95 402.14 323.36 402.14 330.18C402.14 339.6 394.5 347.24 385.08 347.24C335.17 347.24 202.49 347.24 152.58 347.24C143.16 347.24 135.52 339.6 135.52 330.18C135.52 323.36 135.52 319.95 135.52 313.12C135.52 303.7 143.16 296.07 152.58 296.07C202.49 296.07 335.17 296.07 385.08 296.07Z" id="dL6NHTnGR"></path><path d="M487.42 398.41C496.84 398.41 504.48 406.04 504.48 415.46C504.48 422.29 504.48 425.7 504.48 432.52C504.48 441.94 496.84 449.58 487.42 449.58C417.04 449.58 222.96 449.58 152.58 449.58C143.16 449.58 135.52 441.94 135.52 432.52C135.52 425.7 135.52 422.29 135.52 415.46C135.52 406.04 143.16 398.41 152.58 398.41C222.96 398.41 417.04 398.41 487.42 398.41Z" id="a1yC1uCCUB"></path></defs><g><g><g><use xlink:href="#bucv8X521" opacity="1" fill="#696d6f" fill-opacity="1"></use></g><g><use xlink:href="#dPWm00YIz" opacity="1" fill="#696d6f" fill-opacity="1"></use></g><g><use xlink:href="#b3bmCC28Y9" opacity="1" fill="#696d6f" fill-opacity="1"></use></g><g><use xlink:href="#dL6NHTnGR" opacity="1" fill="#696d6f" fill-opacity="1"></use></g><g><use xlink:href="#a1yC1uCCUB" opacity="1" fill="#696d6f" fill-opacity="1"></use></g></g></g></svg>