<?xml version="1.0" encoding="UTF-8" standalone="no"?>
<!DOCTYPE svg PUBLIC "-//W3C//DTD SVG 1.1//EN" "http://www.w3.org/Graphics/SVG/1.1/DTD/svg11.dtd">
<svg version="1.1" xmlns="http://www.w3.org/2000/svg" xmlns:xlink="http://www.w3.org/1999/xlink" preserveAspectRatio="xMidYMid meet" viewBox="0 0 640 640" width="640" height="640"><defs><path d="M120 285.46L140.99 303.64L320.04 181.89L499.05 303.64L520 285.46L320.82 150L320.04 150.69L319.23 150L120 285.46Z" id="ahEsCVPHH"></path><path d="M455.62 466.97L457.03 441.54L220.83 450.39L203.01 260.63L171.85 264.88L191.69 476.01L192.86 475.84L192.82 476.81L455.62 466.97Z" id="b15jR0ZHET"></path><path d="M224.76 166.2L224.33 193.11L175.24 233.8L175.24 166.2L224.76 166.2Z" id="b2EZCjflKV"></path><path d="M189.56 466.34L188.14 440.91L424.34 449.76L442.17 260L473.33 264.25L453.49 475.38L452.32 475.21L452.36 476.18L189.56 466.34Z" id="d1yzWhdWwX"></path></defs><g><g><path></path><g><use xlink:href="#ahEsCVPHH" opacity="1" fill="#696d6f" fill-opacity="1"></use><g><use xlink:href="#ahEsCVPHH" opacity="1" fill-opacity="0" stroke="#000000" stroke-width="0.4" stroke-opacity="0"></use></g></g><g><use xlink:href="#b15jR0ZHET" opacity="1" fill="#696d6f" fill-opacity="1"></use><g><use xlink:href="#b15jR0ZHET" opacity="1" fill-opacity="0" stroke="#000000" stroke-width="0.4" stroke-opacity="0"></use></g></g><g><use xlink:href="#b2EZCjflKV" opacity="1" fill="#696d6f" fill-opacity="1"></use><g><use xlink:href="#b2EZCjflKV" opacity="1" fill-opacity="0" stroke="#000000" stroke-width="0.4" stroke-opacity="0"></use></g></g><g><use xlink:href="#d1yzWhdWwX" opacity="1" fill="#696d6f" fill-opacity="1"></use><g><use xlink:href="#d1yzWhdWwX" opacity="1" fill-opacity="0" stroke="#000000" stroke-width="0.4" stroke-opacity="0"></use></g></g></g></g></svg>